<?xml version="1.0" standalone="no"?>
<!DOCTYPE svg PUBLIC "-//W3C//DTD SVG 20010904//EN"
 "http://www.w3.org/TR/2001/REC-SVG-20010904/DTD/svg10.dtd">
<svg version="1.0" xmlns="http://www.w3.org/2000/svg"
 width="225.000000pt" height="225.000000pt" viewBox="0 0 225.000000 225.000000"
 preserveAspectRatio="xMidYMid meet">

<g transform="translate(0.000000,225.000000) scale(0.100000,-0.100000)"
fill="#000000" stroke="none">
<path d="M1881 1303 c-14 -48 -13 -63 0 -39 9 15 13 16 20 5 6 -9 9 -2 9 23 0
50 -17 57 -29 11z"/>
<path d="M262 1231 c-98 -78 -166 -187 -160 -257 4 -50 30 -55 97 -18 41 22
59 26 98 22 26 -3 57 -9 68 -14 17 -7 15 -3 -7 25 -40 47 -36 87 19 170 67 99
-15 151 -115 72z m96 -4 c2 -10 -11 -45 -28 -79 -24 -45 -31 -71 -28 -99 4
-39 4 -39 -34 -39 -21 0 -56 -9 -78 -21 -33 -18 -43 -19 -56 -8 -18 15 -14 39
21 101 43 78 149 172 185 165 8 -1 16 -10 18 -20z"/>
<path d="M1913 1175 c0 -27 2 -38 4 -22 2 15 2 37 0 50 -2 12 -4 0 -4 -28z"/>
<path d="M459 1198 c-4 -63 -3 -78 4 -78 4 0 7 20 7 45 0 25 -2 45 -5 45 -3 0
-5 -6 -6 -12z"/>
<path d="M980 1189 c0 -18 -5 -21 -30 -17 -16 3 -30 1 -30 -4 0 -4 13 -8 29
-8 23 0 31 -5 34 -22 2 -13 5 -2 6 25 0 26 -1 47 -4 47 -3 0 -5 -10 -5 -21z"/>
<path d="M1173 1165 c0 -27 2 -38 4 -22 2 15 2 37 0 50 -2 12 -4 0 -4 -28z"/>
<path d="M1272 1190 c0 -14 2 -19 5 -12 2 6 2 18 0 25 -3 6 -5 1 -5 -13z"/>
<path d="M1410 1200 c-11 -8 -7 -9 15 -4 37 8 45 14 19 14 -10 0 -26 -5 -34
-10z"/>
<path d="M1221 1184 c0 -11 3 -14 6 -6 3 7 2 16 -1 19 -3 4 -6 -2 -5 -13z"/>
<path d="M606 1153 c7 -37 14 -42 14 -10 0 14 -4 28 -9 32 -6 3 -8 -6 -5 -22z"/>
<path d="M652 1150 c0 -19 2 -27 5 -17 2 9 2 25 0 35 -3 9 -5 1 -5 -18z"/>
<path d="M689 1148 c4 -28 6 -29 9 -9 2 13 0 27 -5 32 -6 6 -7 -3 -4 -23z"/>
<path d="M736 1171 c-4 -5 3 -7 14 -4 23 6 26 13 6 13 -8 0 -17 -4 -20 -9z"/>
<path d="M797 1173 c-9 -9 -9 -41 1 -46 4 -3 7 8 7 24 0 16 0 29 -1 29 0 0 -4
-3 -7 -7z"/>
<path d="M826 1167 c3 -10 9 -15 12 -12 3 3 0 11 -7 18 -10 9 -11 8 -5 -6z"/>
<path d="M1129 1148 c4 -28 6 -29 9 -9 2 13 0 27 -5 32 -6 6 -7 -3 -4 -23z"/>
<path d="M1391 1168 c-1 -21 26 -48 47 -47 12 0 10 3 -6 9 -12 5 -27 20 -32
32 -6 16 -9 18 -9 6z"/>
<path d="M1519 1148 c4 -28 6 -29 9 -9 2 13 0 27 -5 32 -6 6 -7 -3 -4 -23z"/>
<path d="M1562 1150 c0 -19 2 -27 5 -17 2 9 2 25 0 35 -3 9 -5 1 -5 -18z"/>
<path d="M500 1155 c0 -5 5 -17 10 -25 5 -8 10 -10 10 -5 0 6 -5 17 -10 25 -5
8 -10 11 -10 5z"/>
<path d="M1021 1144 c0 -11 3 -14 6 -6 3 7 2 16 -1 19 -3 4 -6 -2 -5 -13z"/>
<path d="M1312 1140 c0 -14 2 -19 5 -12 2 6 2 18 0 25 -3 6 -5 1 -5 -13z"/>
<path d="M1986 1134 c-4 -9 -4 -19 -1 -22 3 -3 5 0 5 6 0 7 7 12 15 12 9 0 15
-9 15 -22 0 -12 3 -19 6 -15 4 3 4 18 0 32 -7 28 -31 33 -40 9z"/>
<path d="M738 1128 c5 -5 16 -8 23 -6 8 3 3 7 -10 11 -17 4 -21 3 -13 -5z"/>
<path d="M1752 1108 c-8 -10 -5 -13 13 -13 14 0 21 5 18 13 -3 6 -9 12 -13 12
-4 0 -12 -6 -18 -12z"/>
<path d="M2089 1094 c-14 -15 -31 -23 -41 -21 -10 3 -16 1 -12 -4 8 -14 30
-11 45 7 7 9 22 19 33 23 11 5 15 10 9 14 -5 4 -21 -5 -34 -19z"/>
<path d="M1826 1084 c-4 -10 -12 -14 -22 -10 -15 6 -15 4 -3 -10 12 -14 14
-14 26 2 13 17 17 34 9 34 -2 0 -7 -7 -10 -16z"/>
<path d="M1973 1065 c0 -22 2 -30 4 -17 2 12 2 30 0 40 -3 9 -5 -1 -4 -23z"/>
<path d="M423 1015 c0 -22 2 -30 4 -17 2 12 2 30 0 40 -3 9 -5 -1 -4 -23z"/>
<path d="M681 1034 c0 -11 3 -14 6 -6 3 7 2 16 -1 19 -3 4 -6 -2 -5 -13z"/>
<path d="M850 1015 c19 -19 36 -35 39 -35 3 0 -10 16 -29 35 -19 19 -36 35
-39 35 -3 0 10 -16 29 -35z"/>
<path d="M1253 1015 c0 -22 2 -30 4 -17 2 12 2 30 0 40 -3 9 -5 -1 -4 -23z"/>
<path d="M1590 1042 c0 -4 10 -13 23 -21 22 -14 22 -14 3 8 -20 22 -26 25 -26
13z"/>
<path d="M1922 1010 c0 -19 2 -27 5 -17 2 9 2 25 0 35 -3 9 -5 1 -5 -18z"/>
<path d="M1959 980 c-2 -14 -10 -24 -17 -22 -14 2 -16 -17 -2 -38 7 -11 11 -8
20 15 6 16 9 38 7 49 -3 19 -4 18 -8 -4z"/>
</g>
</svg>
