<?xml version="1.0" standalone="no"?>
<!DOCTYPE svg PUBLIC "-//W3C//DTD SVG 20010904//EN"
 "http://www.w3.org/TR/2001/REC-SVG-20010904/DTD/svg10.dtd">
<svg version="1.0" xmlns="http://www.w3.org/2000/svg"
 width="3000.000000pt" height="987.000000pt" viewBox="0 0 3000.000000 987.000000"
 preserveAspectRatio="xMidYMid meet">

<g transform="translate(0.000000,987.000000) scale(0.100000,-0.100000)"
fill="#000000" stroke="none">
<path d="M6200 8240 l0 -989 38 -10 c129 -35 1844 -461 1852 -461 7 0 10 408
10 1225 l0 1225 -950 0 -950 0 0 -990z"/>
<path d="M15020 8120 l0 -790 -320 0 -320 0 0 -795 0 -795 320 0 320 0 0 -348
0 -347 938 -234 c515 -129 943 -236 950 -239 9 -3 12 117 12 582 l0 586 475 0
475 0 0 795 0 795 -475 0 -475 0 0 790 0 790 -950 0 -950 0 0 -790z"/>
<path d="M20755 7480 c-186 -11 -309 -27 -475 -60 -280 -56 -497 -128 -735
-245 -698 -343 -1183 -961 -1359 -1730 -60 -262 -84 -562 -67 -822 11 -161 34
-350 45 -360 3 -3 1127 -286 2498 -629 2368 -592 2494 -622 2508 -605 171 204
278 366 380 576 121 247 196 484 242 768 30 180 33 632 5 802 -134 831 -569
1483 -1270 1901 -500 298 -1138 444 -1772 404z m467 -1620 c320 -107 563 -385
660 -755 29 -112 31 -132 32 -300 1 -196 -8 -262 -56 -409 -106 -328 -343
-580 -638 -678 -90 -30 -104 -32 -245 -32 -167 -1 -226 11 -352 69 -302 140
-523 443 -588 810 -21 117 -21 333 0 450 61 345 262 638 537 784 152 81 245
102 423 97 115 -3 141 -7 227 -36z"/>
<path d="M27825 7475 c-651 -72 -1149 -309 -1479 -705 -94 -112 -157 -208
-233 -355 l-62 -120 -1 518 0 517 -950 0 -950 0 0 -2284 0 -2284 945 -236
c520 -130 947 -236 950 -236 2 0 6 503 8 1117 3 1002 5 1125 20 1185 59 240
151 410 310 574 176 184 391 305 640 361 49 11 117 16 212 16 230 -1 397 -41
602 -143 l113 -57 0 1074 c0 590 -1 1072 -2 1072 -2 -1 -57 -7 -123 -14z"/>
<path d="M8670 6981 l0 -349 945 -236 c520 -130 947 -236 950 -236 3 0 5 263
5 585 l0 585 -950 0 -950 0 0 -349z"/>
<path d="M12000 6565 l0 -764 38 -10 c129 -35 1844 -461 1852 -461 7 0 10 334
10 1000 l0 1000 -950 0 -950 0 0 -765z"/>
<path d="M2706 6123 c-184 -370 -281 -739 -306 -1168 -51 -894 302 -1768 933
-2311 260 -224 575 -393 878 -473 412 -108 797 -102 1160 19 277 92 527 254
739 477 l90 95 0 -256 0 -256 942 0 c797 0 940 2 928 14 -11 10 -1618 1223
-2178 1644 l-32 25 -48 -40 c-106 -89 -192 -136 -322 -178 -114 -37 -279 -45
-401 -21 -387 79 -696 428 -773 876 -20 116 -20 326 -1 435 11 63 12 82 2 91
-34 33 -1527 1154 -1536 1154 -6 0 -40 -57 -75 -127z"/>
<path d="M28775 4295 c-397 -73 -720 -377 -816 -770 -99 -403 68 -851 406
-1084 356 -247 805 -252 1164 -14 212 141 364 359 432 619 20 75 23 113 23
239 -1 128 -5 164 -27 246 -106 399 -424 694 -826 764 -101 18 -260 18 -356 0z"/>
<path d="M2476 969 c-13 -30 -116 -251 -229 -492 l-205 -438 76 3 76 3 42 93
c23 52 46 98 51 103 5 5 99 8 222 7 l212 -3 46 -102 46 -103 74 0 c56 0 74 3
70 13 -12 29 -450 962 -453 966 -2 2 -15 -20 -28 -50z m104 -416 c39 -84 70
-157 70 -163 0 -6 -53 -10 -151 -10 -93 0 -149 4 -147 10 18 52 145 319 151
317 4 -1 39 -71 77 -154z"/>
<path d="M4540 528 l0 -488 65 0 65 0 0 325 c0 179 2 325 5 325 3 0 156 -152
340 -337 l334 -338 1 493 0 492 -70 0 -70 0 0 -327 0 -328 -335 335 -335 336
0 -488z"/>
<path d="M6510 533 l0 -493 70 0 70 0 1 328 0 327 335 -340 334 -339 0 492 0
492 -70 0 -70 0 0 -327 -1 -328 -334 340 -334 340 -1 -492z"/>
<path d="M8215 1008 c-363 -41 -552 -456 -348 -765 139 -211 436 -278 657
-149 56 33 139 122 170 184 35 68 56 153 56 223 l0 56 -245 7 c-136 3 -250 4
-255 1 -6 -4 -10 -35 -10 -71 l0 -64 180 0 c206 0 200 4 154 -88 -33 -67 -110
-136 -177 -158 -170 -56 -351 17 -438 178 -32 59 -34 69 -34 158 0 89 2 99 34
158 19 35 56 83 83 107 149 133 395 114 500 -40 26 -40 33 -41 111 -17 l57 17
-34 50 c-107 159 -271 235 -461 213z"/>
<path d="M15120 528 l0 -488 65 0 65 0 0 325 c0 179 2 325 5 325 3 0 156 -152
340 -337 l334 -338 1 493 0 492 -70 0 -70 0 0 -327 0 -328 -335 335 -335 336
0 -488z"/>
<path d="M20425 1008 c-248 -28 -435 -238 -435 -488 0 -134 47 -247 145 -346
95 -96 210 -144 346 -145 138 0 252 44 350 137 98 94 149 215 149 354 0 139
-51 260 -149 354 -110 105 -253 152 -406 134z m222 -174 c141 -68 218 -215
193 -367 -19 -121 -84 -208 -195 -263 -68 -34 -82 -37 -159 -37 -72 0 -92 4
-147 30 -77 36 -140 98 -177 173 -24 48 -27 67 -27 150 0 83 3 102 27 150 91
186 296 255 485 164z"/>
<path d="M22650 532 l0 -492 70 0 70 0 0 328 1 327 334 -340 334 -340 1 493 0
492 -70 0 -70 0 -1 -327 0 -328 -335 340 -334 339 0 -492z"/>
<path d="M25526 969 c-13 -30 -116 -251 -229 -492 l-205 -438 76 3 76 3 42 93
c23 52 46 98 51 103 5 5 99 8 222 7 l212 -3 46 -102 46 -103 74 0 c56 0 74 3
70 13 -12 29 -450 962 -453 966 -2 2 -15 -20 -28 -50z m104 -416 c39 -84 70
-157 70 -163 0 -6 -53 -10 -151 -10 -93 0 -149 4 -147 10 18 52 145 319 151
317 4 -1 39 -71 77 -154z"/>
<path d="M29558 1008 c-198 -19 -322 -175 -274 -341 30 -103 114 -155 328
-202 165 -37 228 -79 228 -152 0 -77 -56 -127 -159 -144 -113 -18 -238 19
-329 97 -24 20 -44 35 -46 33 -2 -2 -18 -29 -35 -60 l-31 -56 39 -36 c85 -77
202 -118 336 -118 103 0 169 17 236 60 132 83 170 260 82 378 -34 47 -148 99
-282 129 -144 32 -185 48 -217 87 -34 40 -29 96 12 138 36 38 83 52 169 52 89
0 140 -14 206 -58 28 -20 53 -34 54 -33 1 2 16 29 34 60 l32 57 -42 30 c-86
63 -213 92 -341 79z"/>
<path d="M1085 998 c-3 -7 -4 -227 -3 -488 l3 -475 278 -3 277 -2 0 70 0 70
-210 0 -210 0 0 145 0 145 175 0 175 0 0 65 0 65 -175 0 -175 0 0 140 0 140
210 0 210 0 0 70 0 70 -275 0 c-211 0 -277 -3 -280 -12z"/>
<path d="M3387 1003 c-4 -3 -7 -222 -7 -485 l0 -478 70 0 70 0 0 170 0 171 77
-3 77 -3 119 -168 119 -167 80 0 80 0 -14 22 c-9 13 -63 90 -122 173 l-106
150 54 27 c107 54 166 156 166 287 0 179 -103 280 -306 301 -103 11 -347 13
-357 3z m442 -158 c66 -39 96 -111 81 -196 -19 -101 -74 -131 -257 -137 l-133
-5 0 183 0 182 138 -4 c114 -3 143 -7 171 -23z"/>
<path d="M10430 520 l0 -493 218 5 c250 6 299 18 371 89 123 123 100 361 -40
420 l-29 11 40 39 c74 72 87 201 29 295 -54 87 -140 114 -396 121 l-193 6 0
-493z m423 325 c88 -42 89 -158 1 -200 -26 -12 -72 -19 -160 -23 l-124 -5 0
128 0 128 123 -5 c89 -3 132 -10 160 -23z m17 -377 c20 -9 48 -30 63 -47 23
-27 27 -42 27 -91 0 -48 -4 -64 -26 -90 -46 -54 -75 -63 -226 -68 l-138 -5 0
163 0 163 133 -5 c84 -4 145 -11 167 -20z"/>
<path d="M11560 520 l0 -490 275 0 275 0 0 70 0 70 -205 0 -205 0 0 145 0 145
170 0 170 0 0 65 0 65 -170 0 -170 0 0 140 0 140 205 0 205 0 0 70 0 70 -275
0 -275 0 0 -490z"/>
<path d="M13998 986 c-345 -122 -446 -557 -189 -814 166 -166 434 -192 630
-61 78 52 125 107 168 196 45 93 60 189 46 284 -13 82 -65 196 -117 256 -51
58 -146 119 -223 143 -94 29 -226 27 -315 -4z m227 -117 c33 -6 77 -20 99 -31
60 -31 130 -102 161 -165 26 -52 29 -68 29 -153 0 -85 -3 -101 -29 -153 -32
-64 -101 -134 -162 -165 -175 -90 -397 -14 -485 166 -30 59 -33 76 -33 152 0
76 3 93 33 152 50 102 145 176 253 197 62 12 68 12 134 0z"/>
<path d="M16440 520 l0 -493 193 6 c209 7 286 21 369 70 307 180 295 688 -19
846 -80 40 -150 52 -350 58 l-193 6 0 -493z m465 311 c117 -58 180 -166 180
-311 0 -145 -63 -253 -180 -311 -62 -30 -74 -33 -196 -37 l-129 -5 0 353 0
353 129 -5 c122 -4 134 -7 196 -37z"/>
<path d="M18910 520 l0 -490 168 0 c258 1 354 22 424 97 113 119 91 345 -40
410 l-40 20 35 28 c90 72 99 234 17 325 -67 74 -178 99 -436 100 l-128 0 0
-490z m417 327 c44 -23 63 -54 63 -102 0 -91 -50 -118 -220 -119 l-125 -1 -3
109 c-1 61 0 116 3 124 8 21 237 12 282 -11z m34 -388 c57 -31 82 -77 76 -142
-5 -58 -29 -93 -82 -121 -34 -17 -59 -20 -175 -21 l-135 0 -3 145 c-1 79 0
151 3 158 4 12 29 14 139 10 117 -5 140 -8 177 -29z"/>
<path d="M23970 522 l0 -492 133 0 c154 0 281 13 348 35 127 43 236 152 281
282 32 96 32 250 0 345 -52 152 -149 243 -312 293 -40 12 -111 18 -252 22
l-198 6 0 -491z m462 314 c67 -32 121 -88 157 -165 22 -48 26 -69 26 -151 0
-82 -4 -103 -26 -151 -36 -77 -90 -133 -157 -165 -50 -24 -72 -27 -189 -32
l-133 -5 0 353 0 353 133 -5 c117 -5 139 -8 189 -32z"/>
<path d="M26440 527 l0 -487 65 0 65 0 2 168 3 167 75 3 75 2 120 -170 119
-170 78 0 c43 0 78 2 78 5 0 3 -54 80 -119 172 l-119 168 47 23 c94 44 149
118 171 228 22 110 -14 221 -92 288 -71 61 -141 77 -370 83 l-198 6 0 -486z
m436 320 c71 -37 104 -111 89 -197 -8 -47 -43 -93 -89 -117 -24 -13 -61 -17
-166 -17 l-135 -1 -3 165 c-1 90 0 171 3 178 8 21 258 12 301 -11z"/>
<path d="M28240 520 l0 -490 275 0 275 0 0 70 0 70 -205 0 -205 0 0 145 0 145
170 0 170 0 0 65 0 65 -170 0 -170 0 0 140 0 140 205 0 205 0 0 70 0 70 -275
0 -275 0 0 -490z"/>
<path d="M82 518 l3 -483 265 0 265 0 3 67 3 68 -201 0 -200 0 0 415 0 415
-70 0 -70 0 2 -482z"/>
<path d="M5860 520 l0 -480 70 0 70 0 0 480 0 480 -70 0 -70 0 0 -480z"/>
<path d="M12530 981 c5 -11 82 -139 170 -286 l160 -266 0 -195 0 -194 70 0 70
0 0 194 0 195 160 266 c88 147 165 275 170 286 10 18 7 19 -67 19 l-78 -1
-125 -214 c-68 -118 -127 -215 -130 -215 -3 0 -62 97 -130 215 l-125 214 -78
1 c-74 0 -77 -1 -67 -19z"/>
<path d="M21422 658 c3 -326 4 -346 25 -402 59 -156 164 -227 338 -227 180 0
291 80 347 251 20 60 22 91 26 393 l4 327 -70 0 -71 0 -3 -332 -3 -333 -30
-54 c-34 -62 -79 -95 -149 -111 -108 -24 -213 29 -260 130 -20 42 -21 66 -24
373 l-4 327 -64 0 -65 0 3 -342z"/>
<path d="M27590 520 l0 -480 65 0 65 0 0 480 0 480 -65 0 -65 0 0 -480z"/>
</g>
</svg>
