<?xml version="1.0" standalone="no"?>
<!DOCTYPE svg PUBLIC "-//W3C//DTD SVG 20010904//EN"
 "http://www.w3.org/TR/2001/REC-SVG-20010904/DTD/svg10.dtd">
<svg version="1.0" xmlns="http://www.w3.org/2000/svg"
 width="567.000000pt" height="102.000000pt" viewBox="0 0 567.000000 102.000000"
 preserveAspectRatio="xMidYMid meet">

<g transform="translate(0.000000,102.000000) scale(0.100000,-0.100000)"
fill="#000000" stroke="none">
<path d="M215 886 l-210 -123 0 -253 0 -253 213 -123 c117 -68 219 -124 225
-124 7 1 107 56 222 124 l210 122 0 254 0 254 -210 122 c-115 68 -217 123
-225 123 -8 0 -109 -56 -225 -123z m304 -77 c39 -22 71 -42 71 -44 0 -5 -141
-85 -150 -85 -10 0 -145 79 -145 85 0 7 128 83 142 84 6 1 43 -17 82 -40z
m-226 -209 c76 -44 143 -80 149 -80 5 0 67 34 138 75 71 41 136 78 145 81 14
6 15 -12 13 -167 l-3 -172 -72 -43 c-39 -23 -74 -40 -77 -36 -3 3 -6 38 -6 79
0 40 -3 73 -6 73 -3 0 -33 -16 -65 -35 -33 -19 -64 -35 -69 -35 -5 0 -35 16
-67 35 -32 19 -61 35 -65 35 -4 0 -8 -36 -10 -80 l-3 -80 -77 45 -78 45 0 170
c0 94 3 170 8 170 4 0 69 -36 145 -80z"/>
<path d="M2293 751 c-85 -22 -135 -79 -135 -155 0 -88 52 -134 182 -161 82
-17 90 -21 90 -40 0 -35 -90 -33 -163 3 l-57 29 -35 -51 c-33 -48 -34 -52 -18
-65 66 -50 205 -75 291 -52 87 24 143 105 128 187 -13 68 -76 108 -209 134
-59 12 -83 33 -56 51 19 13 96 2 141 -20 l37 -18 36 45 c19 25 35 49 35 54 0
5 -24 20 -52 33 -58 26 -164 39 -215 26z"/>
<path d="M3613 745 c-38 -16 -73 -68 -73 -107 0 -24 -4 -28 -30 -28 -30 0 -30
-1 -30 -55 0 -54 0 -55 30 -55 l30 0 0 -120 0 -120 65 0 65 0 0 120 0 120 35
0 35 0 0 55 0 55 -35 0 c-28 0 -35 4 -35 20 0 23 29 41 56 34 14 -4 24 4 37
25 22 38 17 47 -31 61 -49 13 -80 12 -119 -5z"/>
<path d="M1010 505 l0 -245 70 0 70 0 0 148 c0 97 4 142 10 132 5 -8 31 -75
57 -148 l48 -133 34 3 34 3 49 135 c27 74 53 139 59 145 5 5 9 -46 9 -138 l0
-147 70 0 70 0 0 245 0 246 -102 -3 -101 -3 -41 -112 c-23 -61 -43 -114 -46
-117 -3 -2 -25 49 -49 115 l-43 119 -99 0 -99 0 0 -245z"/>
<path d="M1680 505 l0 -245 70 0 69 0 3 78 3 77 97 5 c77 4 102 9 124 26 103
77 95 226 -16 282 -40 20 -58 22 -197 22 l-153 0 0 -245z m264 115 c18 -6 26
-17 26 -33 0 -37 -19 -47 -87 -47 l-63 0 0 38 c0 21 3 42 7 45 10 10 88 8 117
-3z"/>
<path d="M2830 505 l0 -245 70 0 70 0 0 245 0 245 -70 0 -70 0 0 -245z"/>
<path d="M5290 505 l0 -245 65 0 65 0 0 109 c0 102 2 111 22 125 29 20 62 20
82 0 13 -12 16 -39 16 -125 l0 -109 65 0 65 0 0 133 c0 145 -12 190 -60 215
-37 19 -124 10 -160 -17 l-30 -22 0 91 0 90 -65 0 -65 0 0 -245z"/>
<path d="M4250 660 c0 -49 -1 -50 -30 -50 -30 0 -30 -1 -30 -55 0 -54 0 -55
30 -55 l30 0 0 -85 c0 -99 14 -136 60 -155 32 -13 125 -9 139 6 4 5 4 28 -1
50 -7 35 -13 43 -38 48 -30 5 -30 6 -30 71 l0 65 35 0 35 0 0 55 0 55 -35 0
-35 0 0 50 0 50 -65 0 -65 0 0 -50z"/>
<path d="M3232 600 c-39 -24 -52 -25 -52 -5 0 12 -13 15 -60 15 l-60 0 0 -175
0 -175 60 0 59 0 3 112 c3 110 4 113 30 127 20 12 34 13 55 5 l28 -9 3 -118 3
-117 64 0 65 0 0 140 c0 79 -5 149 -11 163 -25 56 -124 75 -187 37z"/>
<path d="M3875 601 c-72 -33 -105 -86 -105 -166 0 -24 5 -56 11 -72 44 -117
229 -151 327 -60 37 35 53 74 53 132 0 58 -16 97 -53 132 -57 53 -159 68 -233
34z m133 -107 c17 -12 22 -25 22 -59 0 -34 -5 -47 -22 -59 -51 -36 -108 -4
-108 59 0 63 57 95 108 59z"/>
<path d="M4600 604 c-75 -33 -110 -86 -110 -169 0 -84 35 -137 112 -170 62
-25 178 -16 215 19 10 8 7 18 -9 44 -20 31 -24 33 -57 26 -55 -12 -89 -9 -111
11 -11 10 -20 22 -20 27 0 4 54 8 120 8 l120 0 0 38 c-1 71 -51 148 -113 171
-40 15 -106 13 -147 -5z m127 -96 c30 -25 14 -38 -47 -38 -66 0 -79 15 -37 45
23 16 60 13 84 -7z"/>
<path d="M5013 609 c-64 -19 -123 -102 -123 -174 0 -75 57 -152 129 -173 79
-24 164 -9 204 35 17 20 17 21 -25 56 -38 32 -44 34 -62 21 -30 -21 -64 -17
-91 11 -32 31 -32 69 0 100 27 28 62 32 90 11 17 -12 24 -10 62 21 42 35 43
36 26 56 -39 43 -131 59 -210 36z"/>
</g>
</svg>
