<?xml version="1.0" standalone="no"?>
<!DOCTYPE svg PUBLIC "-//W3C//DTD SVG 20010904//EN"
 "http://www.w3.org/TR/2001/REC-SVG-20010904/DTD/svg10.dtd">
<svg version="1.0" xmlns="http://www.w3.org/2000/svg"
 width="2737.000000pt" height="648.000000pt" viewBox="0 0 2737.000000 648.000000"
 preserveAspectRatio="xMidYMid meet">

<g transform="translate(0.000000,648.000000) scale(0.100000,-0.100000)"
fill="#000000" stroke="none">
<path d="M3842 6184 c-30 -15 -71 -48 -95 -75 -23 -27 -49 -49 -57 -49 -34 -1
-98 -40 -129 -79 -44 -56 -31 -66 15 -12 34 39 80 71 104 71 13 0 -35 -95 -83
-167 l-36 -53 29 0 c19 0 33 8 46 28 28 43 136 152 151 152 7 0 13 -8 13 -18
0 -19 -63 -116 -103 -159 l-20 -23 31 0 c34 0 58 25 107 113 32 58 30 88 -7
101 -22 8 -34 5 -69 -18 l-41 -28 23 41 c24 44 26 44 142 56 32 3 72 12 88 20
51 27 65 83 27 109 -32 23 -77 20 -136 -10z m137 -8 c9 -11 6 -20 -14 -45 -28
-32 -65 -46 -150 -54 l-50 -5 47 42 c75 69 141 93 167 62z"/>
<path d="M3216 6103 c-3 -4 -25 -6 -47 -4 -48 2 -71 -14 -101 -72 -31 -61 -15
-67 18 -7 32 59 53 77 78 67 15 -6 14 -11 -11 -44 -24 -31 -28 -46 -28 -97 l0
-61 36 -3 c82 -7 169 133 129 209 -11 19 -59 27 -74 12z m41 -53 c-11 -82 -92
-179 -118 -139 -10 15 -6 46 12 90 8 20 15 25 35 21 21 -4 24 -1 24 25 0 35 6
43 33 43 17 0 19 -5 14 -40z"/>
<path d="M2715 6044 c-14 -15 -25 -34 -25 -43 -1 -10 -6 -6 -16 12 -17 32 -53
36 -77 10 -17 -20 -52 -121 -44 -129 3 -3 12 17 21 44 17 50 47 88 59 75 19
-18 -8 -167 -35 -200 -8 -10 -5 -13 8 -13 33 0 41 13 64 98 32 120 81 185 88
117 2 -26 -23 -130 -42 -177 -7 -14 -4 -16 20 -9 33 9 51 55 60 158 5 55 3 63
-15 72 -29 16 -39 14 -66 -15z"/>
<path d="M2314 5899 c-4 -7 -10 -50 -12 -95 -4 -73 -7 -83 -25 -88 -33 -8 -37
1 -30 68 7 78 -6 109 -45 104 -34 -4 -50 -36 -57 -114 l-5 -59 14 63 c26 125
61 106 51 -27 -6 -78 -5 -83 12 -78 65 20 61 22 65 -19 2 -28 8 -40 21 -42 16
-3 17 4 11 100 -3 60 -2 121 4 148 11 46 10 61 -4 39z"/>
<path d="M4571 5739 c-35 -14 -93 -50 -88 -55 2 -3 33 9 68 26 114 54 97 -3
-23 -77 -32 -20 -58 -40 -58 -45 0 -6 35 -9 84 -7 l84 4 -29 -19 c-41 -25 -35
-51 11 -51 19 1 55 4 80 8 l45 7 -48 -25 c-48 -26 -54 -45 -14 -45 21 0 53 17
164 89 52 33 60 51 24 51 -11 0 -47 -13 -82 -30 -69 -32 -129 -48 -129 -34 1
5 24 25 53 44 38 26 53 43 55 62 l3 27 -68 -35 c-73 -37 -143 -55 -143 -36 0
7 18 21 39 32 40 20 71 54 71 77 0 36 -50 52 -99 32z"/>
<path d="M1470 5535 c-6 -8 -12 -30 -13 -50 -1 -37 -6 -42 -24 -24 -6 6 -21 9
-34 7 -34 -5 -45 -53 -30 -124 16 -70 26 -64 13 7 -15 80 12 119 41 62 15 -29
58 -202 78 -315 11 -60 14 -66 31 -57 23 12 23 31 -4 136 -21 84 -21 86 -2 99
37 26 43 34 55 74 15 49 -1 135 -32 174 -23 29 -60 34 -79 11z m56 -47 c24
-46 24 -162 1 -186 -14 -13 -19 -14 -26 -4 -13 21 -33 178 -26 201 9 31 32 26
51 -11z"/>
<path d="M5043 5367 c-39 -15 -58 -33 -23 -23 70 21 111 29 117 23 13 -14 -29
-45 -97 -71 -39 -15 -70 -32 -70 -36 0 -5 14 -19 31 -31 l31 -22 -31 -13 c-36
-15 -44 -54 -12 -54 11 0 22 4 25 9 11 17 101 65 166 88 51 18 58 23 35 23
-16 0 -58 -13 -92 -29 -52 -25 -64 -27 -73 -15 -20 23 -5 41 49 59 59 19 74
34 69 72 -3 26 -7 28 -48 30 -25 1 -59 -3 -77 -10z"/>
<path d="M2330 5341 c-62 -19 -199 -106 -186 -118 2 -2 47 14 99 36 140 60
185 67 242 42 39 -17 50 -29 70 -74 14 -30 34 -62 44 -71 29 -26 90 -31 154
-12 65 19 118 21 135 4 17 -17 15 -28 -5 -28 -9 0 -46 -29 -83 -64 -130 -125
-205 -113 -303 48 -56 92 -81 109 -165 114 -143 8 -246 -84 -246 -223 -1 -106
54 -165 155 -165 45 0 55 4 85 34 28 28 34 41 34 78 0 23 -5 50 -10 58 -7 11
-10 7 -10 -17 0 -19 -10 -43 -26 -62 -34 -41 -75 -42 -115 -2 -101 102 73 267
197 187 13 -9 48 -50 78 -91 61 -82 93 -104 164 -110 26 -2 48 -4 49 -5 1 0
-2 -12 -7 -26 -6 -14 -15 -58 -21 -97 -8 -50 -17 -76 -30 -85 -31 -22 -49 -67
-49 -124 0 -65 23 -116 84 -188 25 -30 51 -61 56 -67 19 -23 62 -27 93 -9 16
9 31 15 32 14 2 -2 26 -50 55 -107 109 -220 197 -340 282 -387 48 -26 61 -29
148 -29 61 1 116 7 154 19 l59 17 -36 37 -36 37 25 43 c61 102 92 240 101 447
6 146 5 152 -21 216 -14 36 -26 83 -26 105 0 151 -101 314 -237 382 -98 50
-240 65 -340 36 -16 -4 -23 -2 -23 8 0 22 -52 67 -87 74 -17 3 -65 -1 -107
-10 -93 -19 -113 -13 -158 48 -58 80 -171 116 -268 87z m635 -343 c-110 -89
-145 -152 -167 -302 -6 -47 -16 -86 -20 -86 -4 0 -15 11 -24 25 -23 36 -13
138 20 203 32 62 105 135 169 167 66 33 70 32 22 -7z m345 -267 c41 -11 86
-24 99 -29 l25 -9 -26 -17 c-14 -9 -36 -19 -48 -21 -35 -7 -33 -10 11 -30 43
-20 64 -51 47 -72 -6 -8 -4 -10 9 -8 10 2 23 4 30 4 6 1 25 13 42 27 20 17 31
21 32 12 0 -7 2 -24 4 -38 5 -35 6 -220 1 -251 -9 -57 -29 -148 -47 -212 -18
-62 -22 -67 -42 -61 -32 9 -66 32 -79 54 -11 18 -14 16 -47 -22 -66 -77 -159
-91 -229 -35 -45 36 -101 104 -152 187 -19 30 -48 72 -64 93 -26 33 -34 37
-74 37 -40 0 -50 5 -84 40 -58 61 -112 184 -104 237 7 45 67 41 119 -8 31 -29
31 -30 7 -25 -74 18 -83 19 -75 7 4 -7 27 -21 51 -31 24 -11 44 -23 44 -28 0
-5 -11 -19 -25 -32 -33 -31 -32 -54 6 -80 37 -27 43 -23 23 14 -8 16 -13 30
-12 30 46 25 83 62 112 112 35 61 37 63 83 69 27 3 58 8 71 11 28 6 28 1 -3
-44 -21 -31 -35 -92 -20 -92 26 0 265 110 265 122 0 5 -11 6 -24 2 -27 -6
-222 75 -209 87 26 24 187 24 283 0z"/>
<path d="M3334 4533 c8 -21 17 -47 22 -58 4 -11 15 -41 24 -67 l17 -48 -62 0
c-36 0 -69 -6 -80 -14 -17 -12 -11 -14 48 -20 130 -14 154 8 110 103 -51 112
-111 189 -79 104z"/>
<path d="M3430 4273 c-31 -10 -84 -15 -173 -15 -112 0 -126 -2 -116 -15 36
-42 145 -70 211 -53 51 14 113 52 128 80 13 23 10 24 -50 3z"/>
<path d="M3365 4159 c-22 -4 -57 -8 -78 -8 -48 -1 -41 -15 18 -31 50 -14 89
-4 121 31 16 18 16 19 -2 18 -10 -1 -37 -5 -59 -10z"/>
<path d="M1082 5118 c-7 -7 -12 -22 -12 -34 0 -14 -8 -25 -20 -29 -45 -14 -49
-82 -10 -155 22 -41 28 -15 6 28 -24 48 -27 79 -10 96 22 23 34 20 34 -9 0
-34 34 -100 62 -119 52 -37 88 -9 88 69 0 65 -13 101 -48 138 -27 29 -69 36
-90 15z m61 -50 c34 -46 49 -90 45 -129 -5 -50 -31 -49 -67 2 -35 47 -38 59
-16 59 23 0 18 36 -7 52 -14 9 -19 20 -15 31 10 26 34 20 60 -15z"/>
<path d="M5342 5060 c-57 -13 -47 -20 21 -13 68 6 97 -4 97 -33 0 -10 -15 -14
-54 -14 -95 0 -158 -68 -106 -115 34 -31 133 -32 190 -3 38 19 46 28 48 56 3
27 -2 35 -27 50 -16 9 -33 27 -36 40 -9 37 -60 49 -133 32z m73 -91 c0 -20 44
-24 51 -5 8 20 28 21 43 3 16 -21 -14 -43 -80 -61 -60 -15 -102 -12 -120 10
-15 18 -3 33 45 55 45 20 61 20 61 -2z"/>
<path d="M21990 4959 c-342 -42 -686 -188 -995 -422 -107 -81 -271 -242 -355
-347 -69 -87 -162 -227 -214 -322 l-28 -52 -35 39 c-44 52 -129 223 -150 305
-11 42 -17 103 -17 175 0 172 43 299 153 450 28 38 51 78 51 87 0 54 -104 -23
-186 -138 -58 -81 -99 -171 -125 -274 -28 -110 -23 -287 11 -395 32 -103 103
-234 169 -312 l57 -68 -33 -74 c-99 -219 -152 -450 -160 -702 -6 -189 3 -286
39 -424 82 -314 297 -572 545 -654 162 -54 402 -65 588 -26 287 59 719 283
988 509 42 37 77 61 77 55 0 -45 -88 -339 -147 -489 -47 -120 -190 -411 -242
-492 l-31 -48 -77 0 c-113 0 -588 -36 -723 -55 -434 -61 -799 -187 -1083 -375
-203 -134 -307 -268 -307 -393 0 -117 60 -190 214 -263 119 -56 194 -68 366
-61 449 20 1042 304 1473 707 78 73 205 218 261 299 l31 44 214 -7 c259 -8
474 -29 639 -62 128 -26 162 -25 162 5 0 41 -49 60 -260 100 -141 27 -351 49
-542 57 -87 4 -158 9 -158 10 0 2 15 27 33 56 144 227 348 639 411 828 70 213
109 433 92 523 -8 44 -55 93 -97 102 -70 16 -178 -44 -244 -133 -19 -26 -65
-105 -102 -177 -58 -112 -78 -140 -146 -207 -164 -161 -431 -308 -682 -373
-330 -85 -617 -37 -793 134 -74 72 -134 165 -172 264 -53 136 -64 204 -64 397
1 151 4 193 27 303 39 185 142 476 164 465 5 -2 64 -31 133 -65 348 -173 777
-238 1210 -183 712 91 1202 484 1203 965 0 150 -47 279 -148 407 -113 141
-323 249 -573 294 -108 19 -322 26 -422 13z m519 -153 c130 -37 223 -87 302
-166 127 -126 175 -284 134 -445 -87 -339 -443 -631 -915 -750 -488 -123 -995
-61 -1338 165 -33 22 -50 40 -47 49 17 44 170 287 239 378 305 406 761 712
1176 787 129 23 328 15 449 -18z m-665 -3638 c-76 -100 -300 -318 -414 -402
-447 -332 -1033 -521 -1326 -429 -87 28 -144 82 -144 136 1 142 268 360 646
528 324 144 727 221 1182 228 l103 1 -47 -62z"/>
<path d="M8978 4855 c-291 -41 -584 -159 -879 -353 -490 -323 -812 -708 -948
-1134 -83 -262 -85 -555 -6 -751 84 -206 283 -374 501 -422 116 -26 347 -17
469 19 363 107 678 406 796 756 30 90 38 258 15 328 -25 73 -84 136 -154 162
-50 20 -71 22 -177 17 -142 -6 -185 -18 -185 -53 0 -23 2 -24 83 -24 112 0
178 -21 227 -71 212 -219 -87 -788 -522 -994 -207 -98 -459 -110 -610 -28
-101 55 -201 193 -237 329 -21 77 -29 216 -20 319 31 330 189 685 446 1002
387 478 1135 862 1519 780 366 -78 442 -409 250 -1078 -160 -558 -584 -1528
-892 -2040 -35 -59 -64 -116 -64 -126 0 -80 204 -82 293 -3 25 22 65 95 158
292 439 931 691 1385 994 1787 353 469 790 829 1155 952 223 75 360 19 360
-145 0 -145 -138 -494 -475 -1201 -200 -419 -368 -781 -415 -891 -87 -203
-137 -401 -147 -574 -7 -144 7 -235 53 -330 86 -180 262 -272 524 -274 110 -1
117 0 170 29 51 28 100 82 100 111 0 7 -8 20 -17 29 -24 24 -94 14 -185 -26
-92 -41 -204 -51 -261 -24 -121 57 -176 225 -147 451 41 337 183 673 622 1478
385 704 474 922 486 1179 4 94 1 131 -13 185 -65 237 -408 295 -785 133 -202
-87 -383 -223 -651 -491 -113 -113 -254 -263 -313 -335 -216 -261 -476 -623
-603 -840 -29 -49 -53 -86 -53 -82 0 4 50 119 111 255 253 561 280 635 315
887 28 203 10 371 -54 505 -68 143 -199 242 -387 291 -105 27 -313 34 -447 14z"/>
<path d="M803 4725 c-50 -35 -51 -108 -2 -176 31 -44 35 -28 5 24 -40 68 -32
127 18 127 49 0 138 -143 107 -173 -10 -9 -16 -7 -31 11 -22 27 -30 28 -30 4
0 -24 19 -42 45 -42 32 0 45 20 45 70 0 60 -46 135 -95 156 -42 17 -36 17 -62
-1z"/>
<path d="M5864 4690 c-22 -5 -57 -15 -77 -24 -32 -13 -40 -13 -64 -1 -29 15
-143 21 -143 8 0 -5 27 -8 60 -8 77 -1 98 -18 68 -55 l-20 -25 -193 0 -192 0
10 -22 c13 -29 30 -31 192 -21 77 5 164 6 193 2 35 -4 58 -1 68 7 8 6 53 18
100 26 97 15 144 35 144 62 0 42 -69 66 -146 51z m110 -30 c19 -19 -162 -70
-199 -57 -43 17 11 53 105 70 32 6 82 -1 94 -13z m-224 -55 c0 -8 -7 -15 -16
-15 -14 0 -14 3 -4 15 7 8 14 15 16 15 2 0 4 -7 4 -15z"/>
<path d="M5803 4337 c32 -8 65 -21 74 -30 14 -14 12 -15 -24 -10 -35 5 -44 1
-87 -36 -53 -46 -78 -51 -100 -19 -16 22 -16 22 -16 1 0 -32 23 -45 97 -53 38
-4 91 -11 120 -15 50 -7 53 -6 64 18 9 21 8 34 -7 72 -24 59 -48 75 -121 81
l-58 4 58 -13z m97 -92 c0 -8 -10 -20 -22 -26 -13 -7 -25 -15 -28 -20 -3 -4
-30 -4 -60 0 l-55 7 50 26 c56 30 115 37 115 13z m17 -30 c-4 -8 -11 -15 -17
-15 -6 0 -6 7 2 20 14 22 24 19 15 -5z"/>
<path d="M612 4328 c-16 -16 -15 -53 2 -86 14 -27 13 -27 -18 -27 -28 0 -31
-3 -34 -35 -2 -28 5 -45 34 -83 34 -44 54 -58 54 -39 0 5 -12 19 -26 33 -35
33 -58 79 -46 91 15 15 42 -4 110 -77 59 -63 62 -64 68 -40 5 20 -6 38 -61
101 -77 88 -94 119 -77 136 10 10 30 -6 92 -69 78 -79 90 -84 90 -34 0 9 -19
35 -42 57 -86 82 -120 98 -146 72z"/>
<path d="M13689 4085 c-89 -33 -184 -114 -256 -221 -52 -76 -236 -416 -298
-551 l-48 -103 -133 0 c-133 0 -134 0 -140 -24 -14 -58 -9 -61 118 -64 l116
-3 -35 -87 c-60 -148 -142 -381 -183 -519 -81 -274 -286 -607 -423 -688 -98
-56 -200 -51 -270 15 l-40 37 87 104 c143 169 250 359 298 524 18 65 23 105
23 215 0 164 -16 220 -85 291 -120 124 -334 101 -546 -59 -367 -277 -589 -832
-448 -1115 52 -104 106 -138 231 -145 102 -6 186 19 288 83 l69 43 35 -29
c107 -85 289 -91 413 -13 59 38 152 137 211 225 l52 80 6 -83 c3 -46 12 -102
19 -126 17 -54 69 -114 128 -150 43 -25 56 -27 147 -27 92 0 105 2 166 32 74
37 185 145 260 254 l44 64 7 -82 c20 -243 171 -342 369 -243 87 44 214 174
314 320 43 63 81 119 85 123 4 4 0 -23 -7 -60 -19 -91 -13 -246 11 -293 25
-48 64 -88 108 -111 51 -26 139 -25 194 1 191 93 455 514 643 1028 l47 127 70
-2 c143 -5 254 -62 254 -130 0 -30 -50 -131 -119 -242 -119 -190 -181 -355
-189 -502 -3 -74 -1 -108 12 -147 34 -101 154 -167 262 -143 101 23 211 114
317 263 l55 77 4 -77 c8 -133 60 -218 150 -248 71 -23 188 -16 253 16 121 59
260 239 430 560 172 323 256 435 373 492 65 32 70 33 197 33 102 0 151 -5 228
-23 53 -13 97 -26 97 -28 0 -3 -24 -33 -53 -67 -29 -35 -119 -156 -200 -270
-195 -274 -298 -400 -368 -452 -36 -27 -116 -66 -214 -105 -133 -53 -160 -68
-176 -94 -24 -39 -24 -89 -2 -112 27 -27 122 -14 213 30 65 31 84 36 149 36
41 0 140 -12 220 -26 102 -19 184 -27 271 -28 123 -1 126 0 195 33 89 44 180
136 273 274 l69 103 11 -82 c6 -49 21 -102 36 -131 103 -205 427 -254 663
-101 149 96 243 231 412 592 54 114 61 146 35 146 -36 0 -56 -27 -124 -167
-184 -381 -382 -573 -595 -577 -93 -1 -130 20 -168 94 -47 95 -47 244 1 393
l17 52 90 18 c107 22 265 82 354 134 130 77 256 218 308 343 28 68 31 175 6
227 -35 74 -149 115 -264 94 -145 -25 -328 -143 -457 -294 -104 -120 -200
-281 -253 -422 -74 -199 -261 -454 -381 -521 -49 -27 -60 -29 -158 -28 -84 0
-130 7 -235 33 -71 18 -133 35 -138 38 -4 2 22 36 57 74 36 39 111 138 168
221 283 415 384 533 527 622 89 55 109 81 98 127 -18 73 -73 83 -136 26 -38
-34 -46 -37 -103 -37 -52 0 -77 7 -172 51 -126 59 -195 70 -312 50 -193 -33
-314 -149 -479 -459 -235 -444 -305 -563 -395 -675 -76 -94 -145 -136 -221
-137 -91 0 -132 67 -109 182 7 38 91 248 211 530 109 257 201 478 205 492 9
39 -4 65 -39 74 -29 8 -287 4 -287 -4 0 -1 9 -19 21 -38 12 -20 21 -51 21 -69
0 -46 -191 -530 -264 -667 -191 -361 -346 -533 -432 -476 -89 57 -42 241 174
686 140 288 170 365 170 436 l0 47 -52 -7 c-86 -10 -433 -19 -461 -12 -26 6
-24 9 54 83 98 94 121 134 127 230 6 101 -3 137 -47 183 -31 32 -45 40 -74 40
-49 0 -86 -18 -103 -52 -8 -15 -23 -72 -34 -125 -118 -573 -432 -1257 -677
-1473 -149 -131 -218 -4 -136 253 51 163 227 512 317 630 l33 43 -76 12 c-101
16 -133 15 -181 -4 -52 -21 -79 -59 -225 -314 -276 -483 -431 -659 -583 -660
-140 0 -131 215 21 517 100 198 339 489 493 599 144 103 263 127 345 68 23
-16 50 -44 60 -63 26 -49 32 -53 61 -42 50 19 39 92 -21 140 -247 196 -669 86
-929 -242 -116 -146 -200 -292 -253 -441 -48 -135 -140 -277 -254 -392 -110
-111 -164 -144 -237 -144 -81 0 -128 58 -128 156 0 58 45 295 80 419 19 66 26
76 123 177 57 58 138 148 180 200 76 93 247 342 247 359 0 5 58 9 129 9 141 0
141 0 141 61 l0 29 -106 0 c-58 0 -104 3 -102 8 2 4 47 96 101 205 104 211
137 299 157 415 32 194 -55 301 -201 247z m107 -171 c9 -36 -3 -113 -33 -207
-28 -90 -128 -312 -189 -422 l-39 -70 -98 -3 c-53 -1 -97 0 -97 2 0 12 184
416 212 466 69 123 185 260 220 260 11 0 20 -10 24 -26z m-356 -855 c-103
-159 -335 -458 -347 -446 -1 2 38 105 88 228 50 123 96 236 102 252 11 27 12
27 104 27 l93 0 -40 -61z m5533 -54 c39 -39 28 -125 -31 -245 -47 -96 -186
-240 -280 -289 -78 -40 -189 -79 -255 -87 l-51 -7 24 39 c98 161 139 224 184
284 177 236 350 365 409 305z m-6613 -80 c39 -38 54 -85 53 -170 -1 -95 -34
-224 -92 -365 -48 -117 -137 -280 -153 -280 -4 0 -8 16 -8 36 0 28 -8 44 -35
71 -34 34 -38 35 -90 31 -89 -8 -125 -57 -125 -173 0 -49 7 -85 26 -132 l27
-66 -24 -18 c-13 -11 -51 -33 -83 -49 -107 -54 -198 -36 -232 46 -71 169 122
671 354 925 149 163 302 220 382 144z"/>
<path d="M5890 3952 c0 -5 20 -13 44 -20 24 -6 57 -22 73 -36 25 -22 26 -25
10 -32 -10 -4 -57 3 -105 14 -47 12 -88 19 -91 17 -10 -11 26 -60 69 -93 46
-35 31 -38 -33 -5 -28 14 -29 14 -22 -9 4 -13 11 -27 15 -31 5 -6 213 -64 237
-67 1 0 -1 10 -6 21 -5 15 -28 29 -69 44 -60 22 -138 72 -128 82 3 3 28 0 56
-7 60 -14 96 -7 105 20 7 23 -8 56 -33 69 -29 15 -122 40 -122 33z"/>
<path d="M460 3798 c0 -16 14 -34 43 -56 43 -34 107 -107 107 -124 0 -10 -1
-9 -69 34 -45 28 -85 36 -95 19 -4 -5 10 -19 29 -31 40 -25 115 -107 115 -126
0 -19 -5 -18 -52 16 -51 37 -94 40 -109 6 -15 -32 8 -74 60 -111 59 -40 60
-26 1 24 -51 43 -64 71 -32 71 10 0 52 -22 93 -49 68 -45 74 -48 77 -29 2 12
-10 47 -26 80 -28 52 -29 57 -9 43 29 -21 57 -19 57 3 0 10 -13 39 -30 65 -39
62 -38 69 5 27 30 -30 35 -31 41 -15 4 10 3 25 -3 34 -9 15 -108 86 -175 126
-27 16 -28 16 -28 -7z"/>
<path d="M16495 3621 c-100 -45 -138 -156 -89 -253 29 -57 121 -75 199 -39 95
43 141 158 97 240 -36 67 -126 89 -207 52z"/>
<path d="M25725 3621 c-100 -45 -138 -156 -89 -253 42 -81 195 -75 266 10 72
86 58 212 -27 248 -46 19 -102 17 -150 -5z"/>
<path d="M6000 3436 c109 -57 96 -99 -14 -48 -44 21 -66 27 -69 19 -8 -23 14
-46 72 -78 70 -37 96 -62 87 -85 -9 -23 -49 -11 -116 34 -67 45 -91 83 -72
112 7 11 8 20 2 20 -17 0 -32 -42 -26 -75 4 -18 16 -45 28 -60 24 -31 110 -75
146 -75 65 0 82 51 32 93 -37 31 -37 35 -2 39 23 2 27 8 27 33 0 25 -8 35 -50
62 -27 18 -59 33 -70 33 -13 -1 -5 -9 25 -24z"/>
<path d="M417 3162 c-41 -46 -7 -120 70 -153 51 -22 53 -22 53 -11 0 4 -15 14
-34 20 -33 12 -96 72 -96 92 0 13 35 30 62 30 19 0 28 -10 45 -50 34 -79 123
-110 123 -41 0 84 -171 171 -223 113z m164 -75 c44 -33 50 -54 14 -49 -21 2
-75 55 -75 72 0 17 17 11 61 -23z"/>
<path d="M23650 3114 c-174 -33 -376 -178 -522 -374 -161 -217 -250 -451 -252
-665 -1 -138 18 -205 80 -274 149 -166 441 -173 656 -14 l50 36 -42 -83 c-33
-65 -38 -81 -23 -75 10 4 68 12 130 19 62 6 117 16 122 21 5 6 35 57 66 115
185 341 384 606 583 776 69 59 178 124 208 124 21 0 44 -30 44 -59 0 -16 -34
-85 -84 -169 -94 -160 -168 -318 -192 -412 -11 -45 -15 -92 -12 -159 5 -126
26 -166 112 -213 54 -29 70 -33 136 -33 65 0 85 5 141 32 75 37 196 155 265
260 l42 62 4 -77 c8 -136 64 -223 164 -252 63 -19 180 -9 239 20 72 35 182
149 260 270 38 58 71 108 74 112 3 4 7 -25 8 -63 5 -172 78 -280 232 -341 46
-18 75 -22 166 -22 167 1 268 42 393 158 108 101 176 208 296 462 79 168 89
204 58 204 -34 0 -52 -25 -126 -176 -125 -257 -260 -430 -397 -511 -140 -83
-293 -79 -348 10 -56 91 -63 240 -18 397 l22 75 85 17 c113 23 215 60 325 116
73 38 108 65 185 142 104 104 149 175 176 279 35 139 -19 232 -153 262 -103
23 -257 -25 -398 -125 -85 -61 -221 -206 -287 -306 -30 -47 -101 -177 -156
-290 -168 -340 -301 -532 -404 -582 -146 -71 -239 -2 -208 154 7 38 90 248
210 528 108 256 201 475 205 488 12 40 -2 70 -38 80 -35 9 -290 3 -284 -7 31
-57 47 -105 41 -124 -34 -112 -217 -554 -266 -642 -97 -176 -205 -333 -282
-410 -106 -106 -178 -131 -227 -79 -45 48 -27 170 58 384 55 140 233 507 331
684 40 71 72 133 72 138 0 11 -55 10 -110 -3 -25 -5 -99 -36 -165 -68 -260
-128 -520 -332 -705 -555 -30 -35 -56 -63 -59 -61 -6 7 203 377 273 484 37 55
91 127 121 159 l55 59 -68 8 c-178 22 -220 6 -302 -115 -45 -66 -225 -401
-322 -600 -102 -207 -198 -342 -317 -443 -75 -64 -146 -97 -235 -110 -69 -10
-76 -9 -122 14 -41 20 -54 34 -79 84 -28 56 -30 67 -30 170 1 84 6 130 24 191
l22 81 68 11 c297 49 567 231 673 452 26 52 32 81 35 145 3 69 1 85 -19 119
-30 51 -94 85 -173 90 -33 3 -71 2 -85 0z m3198 -131 c44 -92 -67 -313 -223
-443 -89 -73 -318 -169 -382 -158 -18 3 -13 14 49 118 185 306 425 547 521
522 10 -3 26 -20 35 -39z m-3046 20 c38 -45 25 -133 -39 -257 -50 -96 -181
-227 -279 -278 -76 -40 -240 -92 -274 -86 -19 3 -15 13 46 113 178 292 400
525 499 525 18 0 39 -8 47 -17z"/>
<path d="M6019 2932 c32 -29 52 -53 47 -60 -9 -14 -27 -7 -100 40 -76 49 -86
49 -86 -4 l0 -41 -24 22 c-26 25 -59 25 -64 1 -1 -10 24 -27 75 -52 43 -20 97
-53 121 -73 40 -35 64 -42 47 -15 -7 12 -117 86 -137 92 -14 5 0 48 16 48 7 0
30 -13 52 -30 69 -52 148 -33 115 29 -13 24 -91 91 -105 91 -6 0 13 -22 43
-48z"/>
<path d="M457 2722 c3 -13 24 -25 64 -36 57 -18 146 -72 135 -83 -2 -3 -28 0
-56 7 -28 7 -61 9 -75 6 -31 -8 -41 -40 -21 -70 15 -24 92 -57 130 -55 12 0
-3 9 -33 19 -29 10 -62 27 -73 38 -20 20 -20 20 0 26 12 4 60 -2 107 -13 48
-12 89 -21 91 -21 15 0 -38 68 -76 97 -45 36 -33 39 31 9 24 -12 25 -11 21 11
-6 30 -18 36 -130 62 -115 26 -121 26 -115 3z"/>
<path d="M5610 2648 c0 -32 32 -81 73 -112 27 -21 33 -32 30 -54 -4 -24 -3
-25 10 -10 12 16 17 15 59 -16 111 -78 178 -83 178 -13 0 26 -10 46 -41 81
-55 62 -70 59 -19 -5 41 -52 51 -89 25 -89 -28 0 -93 39 -100 59 -3 11 -19 36
-36 57 -21 27 -28 45 -24 61 3 13 1 23 -5 23 -5 0 -10 -7 -10 -15 0 -12 -13
-6 -46 20 -55 41 -94 47 -94 13z m89 -34 c30 -26 39 -40 32 -47 -8 -8 -23 0
-51 28 -65 63 -50 78 19 19z m81 -86 l24 -33 -24 16 c-14 9 -26 24 -28 33 -5
24 1 20 28 -16z"/>
<path d="M4340 2338 c-169 -225 -416 -359 -660 -360 -108 -1 -163 15 -287 82
-40 21 -73 38 -73 36 0 -2 11 -29 25 -59 28 -64 45 -76 162 -108 109 -31 274
-31 398 0 274 67 494 260 483 423 l-3 45 -45 -59z"/>
<path d="M785 2361 c5 -17 -1 -20 -62 -26 -97 -8 -141 -22 -148 -45 -16 -52
35 -91 117 -89 l43 1 -46 8 c-61 10 -89 26 -89 50 0 22 51 36 98 27 70 -14
118 -31 134 -48 20 -23 32 -25 24 -4 -4 12 5 15 48 15 68 0 86 7 86 32 0 25
-55 48 -114 48 -42 0 -76 18 -76 41 0 5 -5 9 -11 9 -6 0 -8 -8 -4 -19z m27
-76 c-3 -12 -43 -7 -57 7 -7 6 2 8 25 6 19 -2 34 -7 32 -13z m142 -5 c13 -13
-38 -23 -79 -16 -23 5 -35 13 -35 23 0 13 8 14 53 9 28 -4 56 -11 61 -16z"/>
<path d="M4365 2168 c-44 -55 -156 -145 -230 -187 -156 -89 -362 -133 -523
-111 -48 6 -116 21 -152 33 l-66 22 1 -112 c0 -61 -3 -114 -6 -118 -16 -16
-99 22 -199 90 -176 120 -239 145 -366 145 -175 0 -338 -101 -463 -286 -82
-123 -153 -313 -167 -449 l-7 -65 -51 0 c-40 0 -71 -9 -135 -40 l-83 -40 49
53 c64 71 81 124 56 175 -24 49 -78 75 -167 80 -188 11 -356 -89 -356 -213 0
-43 27 -93 59 -109 38 -20 133 -21 171 -1 35 18 70 61 70 86 0 24 -34 59 -57
59 -14 0 -11 -5 11 -23 24 -20 27 -26 18 -44 -30 -55 -110 -93 -167 -79 -52
13 -84 69 -71 122 10 37 83 112 136 139 122 61 275 58 323 -7 20 -27 20 -28 2
-69 -31 -67 -198 -222 -328 -304 -47 -30 -58 -57 -25 -63 9 -2 72 36 140 83
183 129 370 212 393 176 4 -7 4 -24 0 -38 -9 -35 -185 -209 -262 -258 -66 -42
-76 -59 -43 -70 14 -5 40 6 83 33 148 93 329 172 397 172 71 0 60 -26 -42
-101 -175 -127 -227 -188 -214 -252 7 -35 42 -77 64 -77 10 0 6 8 -12 25 -31
29 -32 35 -7 84 23 45 102 119 198 186 80 56 113 91 113 122 0 30 -16 37 -77
36 -60 -2 -125 -21 -232 -70 -40 -18 -76 -33 -79 -33 -2 0 30 36 71 80 79 82
96 116 80 153 -12 27 15 133 53 210 104 206 251 233 526 96 42 -21 148 -82
235 -135 295 -181 401 -219 618 -219 120 0 150 3 210 23 115 39 185 81 266
162 121 120 196 265 246 480 19 84 26 143 30 293 3 103 3 187 0 187 -3 0 -17
-15 -32 -32z"/>
<path d="M758 1924 c-10 -22 -8 -32 13 -71 13 -24 31 -48 39 -52 27 -14 86
-19 121 -11 30 7 27 8 -27 9 -36 1 -68 7 -80 16 -18 13 -16 14 22 15 36 0 46
6 86 50 48 53 72 61 94 33 11 -15 13 -16 14 -2 0 33 -22 39 -147 39 -123 0
-123 0 -135 -26z m165 -7 c-53 -44 -77 -57 -105 -57 -34 0 -35 11 -5 43 25 27
44 34 100 36 l39 1 -29 -23z m-139 -22 c-4 -8 -8 -15 -10 -15 -2 0 -4 7 -4 15
0 8 4 15 10 15 5 0 7 -7 4 -15z"/>
<path d="M5531 1842 c-9 -16 -2 -39 33 -114 50 -107 57 -131 44 -149 -12 -19
-56 33 -98 117 -32 62 -33 64 -48 42 -14 -19 -13 -25 8 -66 43 -79 89 -132
116 -132 36 0 51 39 37 93 -6 23 -10 43 -8 45 2 2 16 -15 31 -38 l27 -41 -26
-79 c-15 -44 -27 -93 -27 -110 0 -112 105 -123 131 -13 10 43 -4 130 -28 178
-10 19 -15 53 -14 101 1 57 -3 82 -21 118 -12 25 -26 46 -31 46 -5 0 -7 -3 -5
-7 45 -90 56 -132 42 -167 -6 -17 -47 31 -115 137 -34 53 -39 56 -48 39z m183
-366 c16 -77 5 -138 -26 -144 -19 -4 -48 44 -48 81 0 37 41 150 51 140 5 -5
16 -40 23 -77z"/>
<path d="M1173 1642 c-90 -20 -161 -37 -159 -40 7 -6 373 30 387 39 20 12 -8
39 -40 38 -14 -1 -99 -17 -188 -37z"/>
<path d="M5024 1613 c-10 -40 19 -143 70 -248 51 -103 77 -135 111 -135 52 0
69 79 36 164 -19 48 -21 24 -3 -42 15 -57 15 -63 0 -78 -9 -9 -24 -14 -32 -11
-25 10 -56 69 -56 108 0 45 -33 177 -56 221 -28 55 -59 65 -70 21z m65 -52
c23 -55 53 -184 41 -176 -8 5 -62 150 -74 198 -11 45 10 31 33 -22z"/>
<path d="M924 1595 c-4 -9 -2 -21 4 -27 16 -16 47 -5 47 17 0 26 -42 34 -51
10z"/>
<path d="M4779 1383 c-13 -36 1 -125 42 -255 35 -109 59 -148 93 -148 40 0 61
35 60 99 -1 32 -6 66 -12 77 -8 15 -10 3 -6 -51 7 -103 -21 -125 -66 -53 -17
26 -20 43 -15 79 7 59 -12 194 -33 239 -22 45 -48 51 -63 13z m61 -50 c13 -43
26 -201 16 -192 -8 7 -45 176 -46 207 0 35 18 26 30 -15z"/>
<path d="M4519 975 c-82 -45 -75 -273 8 -263 19 2 29 11 36 33 19 63 17 62 28
43 6 -11 22 -18 39 -18 25 0 30 5 39 38 6 20 10 60 10 87 l-2 50 -8 -64 c-14
-113 -48 -108 -57 8 -4 63 -6 69 -22 61 -13 -7 -18 -28 -23 -96 -3 -62 -10
-91 -22 -103 -15 -15 -17 -15 -31 3 -16 23 -18 95 -4 145 12 42 47 81 66 74 8
-3 14 0 14 6 0 15 -40 13 -71 -4z"/>
<path d="M4123 800 c-67 -27 -97 -206 -40 -242 34 -22 106 4 125 46 6 14 14
49 16 78 l5 53 -13 -53 c-17 -64 -38 -98 -68 -108 -29 -9 -58 27 -58 73 0 78
48 169 70 133 5 -8 7 -25 3 -37 -3 -14 -1 -23 6 -23 15 0 26 50 14 69 -12 20
-31 23 -60 11z"/>
<path d="M3750 754 c0 -21 4 -25 23 -22 14 2 23 11 25 26 3 18 -1 22 -22 22
-21 0 -26 -5 -26 -26z"/>
<path d="M3747 683 c-9 -2 -14 -9 -11 -15 4 -5 1 -43 -6 -83 -7 -41 -10 -85
-6 -99 8 -32 40 -42 70 -22 24 15 57 92 55 130 0 12 -9 -3 -20 -33 -18 -52
-44 -91 -59 -91 -18 0 -18 35 0 117 11 49 20 91 20 96 0 7 -14 8 -43 0z"/>
<path d="M2797 666 c-48 -18 -63 -30 -93 -82 -34 -59 -31 -118 7 -122 17 -2
37 6 58 23 l31 27 0 -31 c0 -62 62 -53 115 16 50 66 43 77 -11 15 -44 -50 -74
-66 -74 -39 0 14 42 80 72 113 19 21 19 21 -4 27 -19 5 -34 -6 -88 -63 -60
-64 -86 -80 -103 -64 -19 20 68 127 128 158 26 14 32 14 52 0 20 -12 23 -12
23 0 0 8 -14 19 -31 25 -38 13 -35 13 -82 -3z"/>
<path d="M3373 605 c-19 -8 -45 -33 -63 -61 -50 -80 -52 -148 -4 -160 35 -9
67 10 95 57 38 61 43 50 23 -48 -3 -16 -19 -27 -59 -42 -121 -45 -175 -87
-175 -135 0 -33 19 -46 70 -46 72 0 124 44 180 152 17 32 38 62 48 67 22 12
75 107 69 124 -3 6 -10 -1 -16 -17 -14 -35 -50 -86 -60 -86 -4 0 -5 27 -3 60
2 33 2 66 -1 74 -11 28 -42 4 -70 -55 -40 -83 -97 -116 -97 -56 0 30 53 120
86 146 31 25 62 27 70 6 8 -19 24 -20 24 -2 0 15 -41 37 -68 37 -9 -1 -32 -7
-49 -15z m1 -323 c-60 -85 -164 -133 -164 -75 0 35 34 66 114 104 44 21 83 36
85 33 3 -2 -13 -30 -35 -62z"/>
</g>
</svg>
