<svg width="136" height="40" viewBox="0 0 136 40" fill="none" xmlns="http://www.w3.org/2000/svg">
<g clipPath="url(#clip0_300_6006)">
<path d="M23.9912 9.47028C25.5191 10.7524 26.7796 12.3228 27.7005 14.092C28.6215 15.8612 29.185 17.7944 29.3588 19.7814C29.5327 21.7683 29.3134 23.7701 28.7137 25.6723C28.1139 27.5745 27.1453 29.34 25.8633 30.8679C24.5812 32.3958 23.0107 33.6562 21.2416 34.5772C19.4724 35.4982 17.5391 36.0617 15.5522 36.2355C13.5652 36.4094 11.5635 36.1901 9.66125 35.5904C7.75902 34.9906 5.99355 34.022 4.46564 32.7399L9.34704 26.9225C10.111 27.5636 10.9937 28.0479 11.9448 28.3477C12.896 28.6476 13.8968 28.7572 14.8903 28.6703C15.8838 28.5834 16.8504 28.3017 17.735 27.8412C18.6196 27.3807 19.4048 26.7505 20.0459 25.9865C20.6869 25.2226 21.1712 24.3398 21.4711 23.3887C21.7709 22.4376 21.8806 21.4367 21.7936 20.4433C21.7067 19.4498 21.425 18.4831 20.9645 17.5986C20.504 16.714 19.8738 15.9287 19.1098 15.2877L23.9912 9.47028Z" fill="url(#paint0_linear_300_6006)"/>
<path d="M14.853 4.19617C16.7273 4.87835 18.4488 5.923 19.9194 7.2705C21.3899 8.61799 22.5806 10.2419 23.4236 12.0496C24.2665 13.8573 24.7451 15.8133 24.8321 17.8059C24.9191 19.7986 24.6128 21.7888 23.9306 23.6631C23.2484 25.5373 22.2038 27.2589 20.8563 28.7294C19.5088 30.1999 17.8848 31.3907 16.0772 32.2336C14.2695 33.0765 12.3135 33.5552 10.3209 33.6422C8.32821 33.7292 6.33795 33.4228 4.46369 32.7406L7.06103 25.6045C7.99816 25.9456 8.99329 26.0988 9.98961 26.0553C10.9859 26.0118 11.9639 25.7725 12.8678 25.351C13.7716 24.9295 14.5836 24.3342 15.2573 23.5989C15.9311 22.8636 16.4534 22.0029 16.7945 21.0657C17.1356 20.1286 17.2887 19.1335 17.2452 18.1372C17.2017 17.1408 16.9624 16.1628 16.541 15.259C16.1195 14.3552 15.5241 13.5432 14.7889 12.8695C14.0536 12.1957 13.1928 11.6734 12.2557 11.3323L14.853 4.19617Z" fill="url(#paint1_linear_300_6006)"/>
<path d="M4.46681 2.3645C6.46135 2.3645 8.43637 2.75736 10.2791 3.52064C12.1218 4.28391 13.7961 5.40267 15.2065 6.81302C16.6168 8.22338 17.7356 9.89771 18.4989 11.7404C19.2622 13.5831 19.655 15.5582 19.655 17.5527C19.655 19.5472 19.2622 21.5223 18.4989 23.365C17.7356 25.2077 16.6168 26.882 15.2065 28.2924C13.7961 29.7027 12.1218 30.8215 10.2791 31.5848C8.43635 32.348 6.46134 32.7409 4.4668 32.7409L4.4668 25.1468C5.46407 25.1468 6.45158 24.9504 7.37294 24.5687C8.2943 24.1871 9.13147 23.6277 9.83665 22.9225C10.5418 22.2174 11.1012 21.3802 11.4828 20.4588C11.8645 19.5375 12.0609 18.55 12.0609 17.5527C12.0609 16.5554 11.8645 15.5679 11.4828 14.6466C11.1012 13.7252 10.5418 12.888 9.83665 12.1829C9.13147 11.4777 8.2943 10.9183 7.37295 10.5367C6.45159 10.155 5.46408 9.9586 4.46681 9.9586L4.46681 2.3645Z" fill="url(#paint2_linear_300_6006)"/>
<path d="M47.4809 33.685C45.0989 33.685 43.0948 33.1582 41.4686 32.1046C39.8424 31.0281 38.6972 29.5737 38.033 27.7414L42.087 25.3708C43.026 27.8216 44.8698 29.0469 47.6183 29.0469C48.9468 29.0469 49.9202 28.8064 50.5386 28.3255C51.157 27.8445 51.4662 27.2375 51.4662 26.5046C51.4662 25.6571 51.0883 25.0044 50.3325 24.5463C49.5766 24.0653 48.2253 23.55 46.2784 23.0003C45.2019 22.6796 44.2858 22.3589 43.5299 22.0383C42.797 21.7176 42.0526 21.2939 41.2968 20.7671C40.5639 20.2174 40.0027 19.5303 39.6133 18.7057C39.224 17.8812 39.0293 16.9192 39.0293 15.8198C39.0293 13.6439 39.7966 11.9147 41.3311 10.632C42.8886 9.3265 44.7553 8.67373 46.9312 8.67373C48.8781 8.67373 50.5844 9.15471 52.0503 10.1167C53.539 11.0558 54.6957 12.3727 55.5202 14.0676L51.5349 16.3695C50.573 14.3081 49.0384 13.2775 46.9312 13.2775C45.9463 13.2775 45.1676 13.5065 44.595 13.9646C44.0453 14.3998 43.7704 14.9724 43.7704 15.6824C43.7704 16.4382 44.0796 17.0566 44.698 17.5376C45.3394 17.9957 46.5533 18.4996 48.3398 19.0493C49.0727 19.2783 49.6224 19.4616 49.9889 19.599C50.3783 19.7135 50.8936 19.9082 51.5349 20.183C52.1991 20.435 52.703 20.6755 53.0466 20.9045C53.4131 21.1336 53.8253 21.4428 54.2834 21.8321C54.7415 22.2215 55.0851 22.6223 55.3141 23.0346C55.5661 23.4469 55.7722 23.9508 55.9325 24.5463C56.1158 25.1189 56.2074 25.7487 56.2074 26.4359C56.2074 28.6576 55.3943 30.4212 53.7681 31.7267C52.1648 33.0323 50.0691 33.685 47.4809 33.685ZM73.7293 33.204H68.5759L62.323 25.4052V33.204H57.8911V9.15471H62.323V23.5843L68.2323 16.026H73.5232L66.6176 24.5119L73.7293 33.204ZM77.4532 26.4359C78.0487 28.5889 79.6634 29.6654 82.2974 29.6654C83.9923 29.6654 85.2749 29.0928 86.1453 27.9475L89.7183 30.0089C88.0234 32.4597 85.5269 33.685 82.2287 33.685C79.3886 33.685 77.1096 32.8261 75.3918 31.1083C73.674 29.3905 72.8151 27.2261 72.8151 24.615C72.8151 22.0268 73.6625 19.8738 75.3574 18.156C77.0524 16.4153 79.2282 15.545 81.8851 15.545C84.4046 15.545 86.4774 16.4153 88.1036 18.156C89.7527 19.8967 90.5772 22.0497 90.5772 24.615C90.5772 25.1876 90.52 25.7946 90.4055 26.4359H77.4532ZM77.3845 23.0003H86.1453C85.8933 21.8321 85.3665 20.9618 84.5649 20.3892C83.7862 19.8166 82.8929 19.5303 81.8851 19.5303C80.6941 19.5303 79.7092 19.8395 78.9305 20.4579C78.1517 21.0534 77.6364 21.9009 77.3845 23.0003ZM96.7289 26.4359C97.3244 28.5889 98.9391 29.6654 101.573 29.6654C103.268 29.6654 104.551 29.0928 105.421 27.9475L108.994 30.0089C107.299 32.4597 104.803 33.685 101.504 33.685C98.6643 33.685 96.3853 32.8261 94.6675 31.1083C92.9497 29.3905 92.0908 27.2261 92.0908 24.615C92.0908 22.0268 92.9382 19.8738 94.6331 18.156C96.328 16.4153 98.5039 15.545 101.161 15.545C103.68 15.545 105.753 16.4153 107.379 18.156C109.028 19.8967 109.853 22.0497 109.853 24.615C109.853 25.1876 109.796 25.7946 109.681 26.4359H96.7289ZM96.6602 23.0003H105.421C105.169 21.8321 104.642 20.9618 103.841 20.3892C103.062 19.8166 102.169 19.5303 101.161 19.5303C99.9698 19.5303 98.9849 19.8395 98.2062 20.4579C97.4274 21.0534 96.9121 21.9009 96.6602 23.0003ZM121.398 15.545C123.712 15.545 125.682 16.4268 127.308 18.1904C128.957 19.9311 129.781 22.0726 129.781 24.615C129.781 27.1574 128.957 29.3103 127.308 31.074C125.682 32.8147 123.712 33.685 121.398 33.685C118.994 33.685 117.138 32.849 115.833 31.177V40.0753H111.401V16.026H115.833V18.053C117.138 16.381 118.994 15.545 121.398 15.545ZM117.173 28.1193C118.066 29.0126 119.2 29.4592 120.574 29.4592C121.948 29.4592 123.082 29.0126 123.975 28.1193C124.891 27.2032 125.349 26.0351 125.349 24.615C125.349 23.1949 124.891 22.0383 123.975 21.145C123.082 20.2289 121.948 19.7708 120.574 19.7708C119.2 19.7708 118.066 20.2289 117.173 21.145C116.279 22.0383 115.833 23.1949 115.833 24.615C115.833 26.0351 116.279 27.2032 117.173 28.1193Z" fill="black"/>
</g>
<defs>
<linearGradient id="paint0_linear_300_6006" x1="31.071" y1="1.23408" x2="1.31745" y2="39.8058" gradientUnits="userSpaceOnUse">
<stop offset="0.212347" stop-color="#9CF1FC"/>
<stop offset="0.344964" stop-color="#1FDFF9"/>
<stop offset="0.81758" stop-color="#1AC8FF"/>
</linearGradient>
<linearGradient id="paint1_linear_300_6006" x1="26.6932" y1="-0.91899" x2="-4.35018" y2="56.6325" gradientUnits="userSpaceOnUse">
<stop offset="0.121916" stop-color="#D49EFA"/>
<stop offset="0.213085" stop-color="#BE6EF7"/>
<stop offset="0.686935" stop-color="#5B0DF2"/>
</linearGradient>
<linearGradient id="paint2_linear_300_6006" x1="-3.93138" y1="-15.3253" x2="16.3493" y2="39.0842" gradientUnits="userSpaceOnUse">
<stop offset="0.115995" stop-color="#37F3FF"/>
<stop offset="0.861959" stop-color="#1A15FF"/>
</linearGradient>
<clipPath id="clip0_300_6006">
<rect width="136" height="40" fill="white"/>
</clipPath>
</defs>
</svg>
